<svg xmlns="http://www.w3.org/2000/svg" xmlns:xlink="http://www.w3.org/1999/xlink" viewBox="0 0 336.1 69.5"><g fill="#fff"><path d="M19.7 22.6c2.1 1.8 3.4 4.1 4 7h-8c-.2-1.1-.8-2-1.6-2.7-.8-.6-1.8-1-3.1-1-1 0-1.7.2-2.2.6s-.8 1-.8 1.8c0 .9.5 1.5 1.4 2 .9.4 2.4.9 4.3 1.3l5.2 1.5c1.4.5 2.6 1.4 3.6 2.5 1 1.2 1.5 2.7 1.5 4.7 0 1.6-.4 3-1.3 4.2s-2.1 2.2-3.8 2.9c-1.6.7-3.6 1.1-5.8 1.1-3.8 0-6.8-.8-9.1-2.5-2.1-1.6-3.5-4-4-7h8.2c.1 1.2.6 2.1 1.5 2.8.9.6 2 .9 3.4.9 1 0 1.7-.2 2.2-.7s.8-1 .8-1.8c0-1-.5-1.7-1.4-2.1s-2.4-.9-4.5-1.3-3.8-.9-5.1-1.4-2.5-1.3-3.5-2.4S.2 30.4.2 28.4c0-2.5.9-4.5 2.8-6.1S7.6 20 11.1 20c3.6 0 6.5.9 8.6 2.6zM55 35.9H35.7c.1 2.1.6 3.6 1.6 4.5s2.2 1.4 3.7 1.4c1.3 0 2.3-.3 3.1-1 .8-.6 1.4-1.4 1.7-2.4h9c-.4 2-1.2 3.7-2.4 5.3-1.2 1.5-2.8 2.8-4.7 3.6-1.9.9-4 1.3-6.4 1.3-2.7 0-5.2-.6-7.3-1.7s-3.8-2.8-5-5-1.8-4.7-1.8-7.6.6-5.5 1.8-7.6 2.8-3.8 5-4.9c2.1-1.1 4.6-1.7 7.3-1.7 2.8 0 5.2.6 7.3 1.7s3.7 2.7 4.9 4.8c1.1 2 1.7 4.4 1.7 7.1.1.5 0 1.3-.2 2.2zm-9.8-7.8c-1-.9-2.3-1.4-3.8-1.4-1.6 0-2.9.5-3.9 1.4s-1.6 2.3-1.8 4.1h10.9c.1-1.8-.4-3.2-1.4-4.1zm27.2-6.6c1.7-1 3.5-1.5 5.5-1.5v9.2h-2.5c-2.3 0-4 .5-5.3 1.4-1.2 1-1.9 2.6-1.9 4.9v12.7h-8.5V20.4h8.5v5.2c1.2-1.7 2.5-3.1 4.2-4.1zm22 18.4l6-19.5h9.1l-9.9 27.9H89l-9.9-27.9h9.1l6.2 19.5zm42.9-4H118c.1 2.1.6 3.6 1.6 4.5s2.2 1.4 3.7 1.4c1.3 0 2.3-.3 3.1-1 .8-.6 1.4-1.4 1.7-2.4h9c-.4 2-1.2 3.7-2.4 5.3-1.2 1.5-2.8 2.8-4.7 3.6-1.9.9-4 1.3-6.4 1.3-2.7 0-5.2-.6-7.3-1.7s-3.8-2.8-5-5-1.8-4.7-1.8-7.6.6-5.5 1.8-7.6 2.8-3.8 5-4.9c2.1-1.1 4.6-1.7 7.3-1.7 2.8 0 5.2.6 7.3 1.7s3.7 2.7 4.9 4.8c1.1 2 1.7 4.4 1.7 7.1.1.5 0 1.3-.2 2.2zm-9.8-7.8c-1-.9-2.3-1.4-3.8-1.4-1.6 0-2.9.5-3.9 1.4s-1.6 2.3-1.8 4.1h10.9c.1-1.8-.4-3.2-1.4-4.1zm42.3-7.7v27.9h-8.6v-5c-.8 1.6-2 2.9-3.6 3.9s-3.4 1.4-5.5 1.4c-3.2 0-5.7-1.1-7.6-3.2s-2.8-5.1-2.8-8.8V20.4h8.5v15.1c0 1.9.5 3.4 1.5 4.4 1 1.1 2.3 1.6 4 1.6s3.1-.5 4.1-1.6 1.5-2.7 1.5-4.7V20.4h8.5z"/><use xlink:href="#B"/></g><g fill="#fc3754"><path d="M225.6 21.7c1.8 1.1 3.2 2.8 4.3 4.9 1 2.2 1.6 4.7 1.6 7.6s-.5 5.4-1.6 7.6-2.5 3.8-4.3 5c-1.8 1.1-3.9 1.7-6.2 1.7-2.1 0-4-.5-5.5-1.5s-2.6-2.3-3.4-3.9v18.3H202v-41h8.5v5c.7-1.7 1.8-3 3.4-3.9 1.5-1 3.4-1.5 5.5-1.5 2.3 0 4.4.6 6.2 1.7zm-13.4 7.6c-1.1 1.2-1.7 2.9-1.7 5s.6 3.7 1.7 5c1.2 1.2 2.6 1.9 4.4 1.9s3.3-.6 4.4-1.8 1.7-2.9 1.7-5-.6-3.8-1.7-5-2.6-1.8-4.4-1.8c-1.7-.1-3.2.5-4.4 1.7z"/><use xlink:href="#B" x="60.2"/><path d="M258.3 9.3c.9-.9 2.2-1.3 3.7-1.3s2.8.4 3.7 1.3 1.4 1.9 1.4 3.2-.5 2.3-1.4 3.2-2.2 1.3-3.7 1.3-2.8-.4-3.7-1.3c-.9-.8-1.4-1.9-1.4-3.2s.4-2.4 1.4-3.2zm7.9 11.1v27.9h-8.5V20.4h8.5zM285 39.9l6-19.5h9.1l-9.9 27.9h-10.6l-9.9-27.9h9.1l6.2 19.5zm43.2-6.4c0-2.7-.6-5-1.7-7.1s-2.8-3.6-4.9-4.8c-2.1-1.1-4.5-1.7-7.3-1.7-2.7 0-5.2.6-7.3 1.7s-3.8 2.8-5 4.9c-1.2 2.2-1.8 4.7-1.8 7.6s.6 5.4 1.8 7.6 2.9 3.8 5 5c2.1 1.1 4.5 1.7 7.3 1.7 2.3 0 4.5-.4 6.4-1.3s3.5-2.1 4.7-3.6 2-3.3 2.4-5.3h-9c-.3 1-.8 1.8-1.7 2.4-.8.6-1.9 1-3.1 1-1.5 0-2.7-.5-3.7-1.4s-1.5-2.4-1.6-4.5H328c.1-.7.2-1.5.2-2.2zm-19.5-1.3c.1-1.8.7-3.2 1.8-4.1 1-.9 2.3-1.4 3.9-1.4 1.5 0 2.8.5 3.8 1.4s1.5 2.3 1.5 4.1h-11zm-35.7-19V15h-1.8v-1.8h1.8zm6.2-3.4c.4.4.6 1.1.6 1.8V15H278v-3.2c0-.4-.1-.7-.3-.9s-.5-.3-.8-.3c-.4 0-.6.1-.9.3s-.3.6-.3 1V15h-1.8V9.2h1.8v1.1c.2-.3.4-.6.7-.8s.7-.3 1.2-.3c.6 0 1.2.2 1.6.6zm7.2 2.6h-4c0 .4.1.7.3.9s.5.3.8.3.5-.1.7-.2a.55.55 0 0 0 .3-.5h1.9c-.1.4-.2.8-.5 1.1s-.6.6-1 .8-.8.3-1.3.3c-.6 0-1.1-.1-1.5-.4a2.41 2.41 0 0 1-1-1c-.2-.4-.4-1-.4-1.6s.1-1.1.4-1.6a2.41 2.41 0 0 1 1-1c.4-.2.9-.4 1.5-.4s1.1.1 1.5.4.8.6 1 1 .4.9.4 1.5c-.1.1-.1.3-.1.4zm-2.1-1.6c-.2-.2-.5-.3-.8-.3s-.6.1-.8.3-.3.5-.4.9h2.3c0-.4-.1-.7-.3-.9zm6.3 2.7V15h-.8c-.7 0-1.2-.2-1.6-.5s-.6-.9-.6-1.7v-2.1h-.8V9.2h.8V7.8h1.8v1.4h1.2v1.5h-1.2v2.2c0 .2 0 .4.1.5s.3.1.5.1h.6z"/></g><defs ><path id="B" d="M188.4 21.5c1.7-1 3.5-1.5 5.5-1.5v9.2h-2.5c-2.3 0-4 .5-5.3 1.4-1.2 1-1.9 2.6-1.9 4.9v12.7h-8.5V20.4h8.5v5.2c1.1-1.7 2.5-3.1 4.2-4.1z"/></defs></svg>